<svg xmlns="http://www.w3.org/2000/svg" xmlns:xlink="http://www.w3.org/1999/xlink" width="40" height="40" viewBox="0 0 40 40"><defs><clipPath id="b"><rect width="40" height="40"/></clipPath></defs><g id="a" clip-path="url(#b)"><path d="M3.83,11.08H8.7V26.841H3.83ZM6.266,3.2A2.866,2.866,0,1,1,3.4,6.066,2.874,2.874,0,0,1,6.266,3.2m5.588,23.641h4.871V19.1c0-2.006.43-4.012,2.866-4.012,2.579,0,2.579,2.292,2.579,4.155v7.594h4.871v-8.6c0-4.3-.86-7.45-5.874-7.45a4.834,4.834,0,0,0-4.585,2.579V11.08H11.853Z" transform="translate(4.6 4.8)" fill="#fff"/><rect width="40" height="40" fill="none"/></g></svg>