<svg xmlns="http://www.w3.org/2000/svg" xmlns:xlink="http://www.w3.org/1999/xlink" width="40" height="40" viewBox="0 0 40 40"><defs><clipPath id="b"><rect width="40" height="40"/></clipPath></defs><g id="a" clip-path="url(#b)"><g transform="translate(4 7)"><g transform="translate(0 0)"><path d="M84.941,124.1c11.929,0,18.452-9.883,18.452-18.452,0-.281-.006-.56-.019-.838a13.2,13.2,0,0,0,3.235-3.358,12.946,12.946,0,0,1-3.724,1.021,6.507,6.507,0,0,0,2.852-3.587,13,13,0,0,1-4.118,1.574,6.491,6.491,0,0,0-11.052,5.915A18.412,18.412,0,0,1,77.2,99.6a6.491,6.491,0,0,0,2.008,8.658,6.437,6.437,0,0,1-2.937-.811c0,.027,0,.054,0,.083a6.488,6.488,0,0,0,5.2,6.358,6.475,6.475,0,0,1-2.929.111,6.493,6.493,0,0,0,6.059,4.5,13.014,13.014,0,0,1-8.055,2.776,13.193,13.193,0,0,1-1.547-.09,18.36,18.36,0,0,0,9.941,2.913" transform="translate(-75 -98.411)" fill="#fff"/></g></g><rect width="40" height="40" fill="none"/></g></svg>